<?xml version="1.0" encoding="UTF-8"?>
<svg xmlns="http://www.w3.org/2000/svg" xmlns:xlink="http://www.w3.org/1999/xlink" viewBox="0 0 128 128" width="128px" height="128px">
<g id="surface2613533">
<path style=" stroke:none;fill-rule:nonzero;fill:rgb(100%,100%,100%);fill-opacity:1;" d="M 39 117 L 39 94 L 19 94 L 19 117 M 74 117 L 74 74 L 54 74 L 54 117 M 118 76 L 124 76 L 124 46 C 124 40.5 119.5 36 114 36 L 98 36 C 92.5 36 88 40.5 88 46 L 88 76 C 91.300781 76 94 78.699219 94 82 L 94 117 L 118 117 Z M 118 76 "/>
<path style=" stroke:none;fill-rule:nonzero;fill:rgb(99.607843%,77.254903%,14.117648%);fill-opacity:1;" d="M 39 117 C 37.300781 117 36 115.699219 36 114 L 36 97 L 22 97 L 22 114 C 22 115.699219 20.699219 117 19 117 C 17.300781 117 16 115.699219 16 114 L 16 94 C 16 92.300781 17.300781 91 19 91 L 39 91 C 40.699219 91 42 92.300781 42 94 L 42 114 C 42 115.699219 40.699219 117 39 117 Z M 74 117 C 72.300781 117 71 115.699219 71 114 L 71 77 L 57 77 L 57 114 C 57 115.699219 55.699219 117 54 117 C 52.300781 117 51 115.699219 51 114 L 51 74 C 51 72.300781 52.300781 71 54 71 L 74 71 C 75.699219 71 77 72.300781 77 74 L 77 114 C 77 115.699219 75.699219 117 74 117 Z M 118 117 C 116.300781 117 115 115.699219 115 114 L 115 76 C 115 74.300781 116.300781 73 118 73 L 121 73 L 121 46 C 121 42.101562 117.898438 39 114 39 L 98 39 C 94.101562 39 91 42.101562 91 46 L 91 76 C 91 77.699219 89.699219 79 88 79 C 86.300781 79 85 77.699219 85 76 L 85 46 C 85 38.800781 90.800781 33 98 33 L 114 33 C 121.199219 33 127 38.800781 127 46 L 127 76 C 127 77.699219 125.699219 79 124 79 L 121 79 L 121 114 C 121 115.699219 119.699219 117 118 117 Z M 118 117 "/>
<path style=" stroke:none;fill-rule:nonzero;fill:rgb(99.607843%,77.254903%,14.117648%);fill-opacity:1;" d="M 106 117 C 104.300781 117 103 115.699219 103 114 L 103 82 C 103 80.300781 104.300781 79 106 79 C 107.699219 79 109 80.300781 109 82 L 109 114 C 109 115.699219 107.699219 117 106 117 Z M 106 117 "/>
<path style=" stroke:none;fill-rule:nonzero;fill:rgb(100%,100%,100%);fill-opacity:1;" d="M 106 6 C 100.476562 6 96 10.476562 96 16 C 96 21.523438 100.476562 26 106 26 C 111.523438 26 116 21.523438 116 16 C 116 10.476562 111.523438 6 106 6 Z M 106 6 "/>
<path style=" stroke:none;fill-rule:nonzero;fill:rgb(99.607843%,77.254903%,14.117648%);fill-opacity:1;" d="M 106 29 C 98.800781 29 93 23.199219 93 16 C 93 8.800781 98.800781 3 106 3 C 113.199219 3 119 8.800781 119 16 C 119 23.199219 113.199219 29 106 29 Z M 106 9 C 102.101562 9 99 12.101562 99 16 C 99 19.898438 102.101562 23 106 23 C 109.898438 23 113 19.898438 113 16 C 113 12.101562 109.898438 9 106 9 Z M 94 117 C 92.300781 117 91 115.699219 91 114 L 91 82 C 91 80.300781 92.300781 79 94 79 C 95.699219 79 97 80.300781 97 82 L 97 114 C 97 115.699219 95.699219 117 94 117 Z M 94 117 "/>
<path style=" stroke:none;fill-rule:nonzero;fill:rgb(100%,100%,100%);fill-opacity:1;" d="M 124 127 L 4 127 C 2.300781 127 1 125.699219 1 124 L 1 4 C 1 2.300781 2.300781 1 4 1 C 5.699219 1 7 2.300781 7 4 L 7 121 L 124 121 C 125.699219 121 127 122.300781 127 124 C 127 125.699219 125.699219 127 124 127 Z M 124 127 "/>
</g>
</svg>