<svg xmlns="http://www.w3.org/2000/svg" width="256" height="256" viewBox="0 0 256 256">
    <g fill="none" fill-rule="nonzero">
        <path fill="#2DADE3" d="M227.564 74.846h-7.61a3.806 3.806 0 0 0 0 7.613h7.61a3.81 3.81 0 0 1 3.807 3.805 3.81 3.81 0 0 1-3.807 3.806h-45.668v7.612h45.668c6.297 0 11.418-5.123 11.418-11.418 0-6.295-5.12-11.418-11.418-11.418z"/>
        <path fill="#FFF0D3" d="M71.531 148.424v95.951l-12.619 4.207a3.804 3.804 0 1 0 2.406 7.22l15.223-5.073a3.805 3.805 0 0 0 2.602-3.61v-98.695H71.53z"/>
        <path fill="#FFD9D4" d="M109.588 148.424v95.951l12.621 4.207a3.807 3.807 0 0 1-2.408 7.22l-15.22-5.073a3.802 3.802 0 0 1-2.602-3.61v-98.695h7.609z"/>
        <path fill="#FF6337" d="M147.646 148.424v95.951l-12.62 4.207a3.807 3.807 0 0 0 2.408 7.22l15.22-5.073a3.804 3.804 0 0 0 2.604-3.61v-98.695h-7.612z"/>
        <path fill="#FF4128" d="M185.703 148.424v95.951l12.62 4.207a3.804 3.804 0 1 1-2.406 7.22l-15.222-5.073a3.804 3.804 0 0 1-2.603-3.61v-98.695h7.611z"/>
        <path fill="#FFA754" d="M113.393 129.395v-35.52c0-5.605-4.543-10.148-10.149-10.148H88.021v65.794l17.76 25.543h15.223v-25.543c0-7.718-2.877-14.76-7.611-20.126z"/>
        <path fill="#FFCB63" d="M98.17 129.395v-35.52c0-5.605-4.543-10.148-10.149-10.148H77.873c-5.605 0-10.148 4.543-10.148 10.148v13.645c-13.131 3.38-22.834 15.3-22.834 29.486v38.058h60.89v-25.543c0-7.718-2.877-14.76-7.611-20.126z"/>
        <path fill="#FFCB63" d="M67.725 90.068c-23.084 0-41.864-18.779-41.864-41.863a3.804 3.804 0 0 0-3.804-3.805 3.805 3.805 0 0 0-3.807 3.805c0 27.281 22.193 49.475 49.475 49.475h15.222v-7.612H67.725z"/>
        <path fill="#FF4128" d="M124.414 54.59a7.575 7.575 0 0 0-1.639-4.701l-14.09-18.108L90.56 68.75h30.445c4.205 0 7.613-3.158 7.613-7.363a7.6 7.6 0 0 0-4.203-6.797z"/>
        <path fill="#FF6337" d="M56.705 54.59a7.573 7.573 0 0 1 1.637-4.701L72.42 31.795 90.559 68.75H60.113c-4.203 0-7.611-3.158-7.611-7.363a7.6 7.6 0 0 1 4.203-6.797z"/>
        <path fill="#FFD9D4" d="M107.941 30.87c.004-.005-17.382-.003-17.382-.003v37.637c12.609 0 22.834-10.225 22.834-22.836a22.736 22.736 0 0 0-5.452-14.799z"/>
        <path fill="#FFF0D3" d="M97.607 37.047l-24.43-6.178a22.727 22.727 0 0 0-5.452 14.799c0 12.611 10.224 22.836 22.834 22.836 4.2 0 7.61-10.225 7.61-22.836 0-3.049-.196-5.961-.562-8.621z"/>
        <path fill="#FF4128" d="M90.559 22.834l7.048 14.213a24.566 24.566 0 0 0 10.334-6.178c-4.187-4.916-10.42-8.035-17.382-8.035z"/>
        <path fill="#FF6337" d="M90.559 22.834c-6.961 0-13.196 3.12-17.381 8.035 6.615 6.617 16.056 8.68 24.43 6.178-1.133-8.336-3.862-14.213-7.05-14.213z"/>
        <path fill="#FF4128" d="M159.063 121.783l7.61 45.67c12.612 0 22.835-10.224 22.835-22.836l-30.446-22.834z"/>
        <path fill="#FF6337" d="M143.84 144.617c0 12.612 10.222 22.836 22.834 22.836v-45.67l-22.834 22.834z"/>
        <path fill="#DBF4FF" d="M181.896 83.727l-15.222-.006-15.223 30.449 15.223 30.441 15.222.006 7.612-30.445z"/>
        <path fill="#FFF" d="M166.674 83.72l-15.223.007-7.611 30.445 7.611 30.445 15.223-.006z"/>
        <path fill="#49C9FF" d="M146.379 83.727c-5.606 0-10.149 4.543-10.149 10.148l-.001 67.76h15.222V83.727h-5.072z"/>
        <path fill="#2DADE3" d="M186.97 83.727h-5.074v77.908h15.223v-67.76c0-5.605-4.543-10.148-10.148-10.148z"/>
        <path fill="#A8E5FF" d="M170.479 98.95a3.806 3.806 0 1 1-7.61-.003 3.806 3.806 0 0 1 7.61.002zM170.479 114.172a3.806 3.806 0 1 1-7.612.001 3.806 3.806 0 0 1 7.612-.001zM170.479 129.395a3.806 3.806 0 1 1-7.612 0 3.806 3.806 0 0 1 7.612 0z"/>
        <path fill="#85453D" d="M181.896 3.807c-1.144 0-2.224.26-3.199.71A7.606 7.606 0 0 0 171.748 0a7.579 7.579 0 0 0-5.074 1.95A7.582 7.582 0 0 0 161.6 0a7.61 7.61 0 0 0-6.952 4.518 7.58 7.58 0 0 0-3.197-.711 7.61 7.61 0 0 0-7.611 7.611v34.25h45.668v-34.25a7.61 7.61 0 0 0-7.612-7.611z"/>
        <path fill="#A45E43" d="M166.674 22.834v51.25l22.834-23.342v-5.074c0-12.611-10.223-22.834-22.834-22.834z"/>
        <path fill="#C27749" d="M166.674 22.834c-12.612 0-22.834 10.223-22.834 22.834v5.074l30.445 23.342V45.668c0-12.611-3.408-22.834-7.611-22.834z"/>
        <path fill="#60312C" d="M176.168 50.742a11.622 11.622 0 0 0-1.883-2.162l-7.611 35.147c12.611 0 22.834-10.225 22.834-22.834v-10.15h-13.34z"/>
        <path fill="#85453D" d="M174.285 60.893V48.58a11.371 11.371 0 0 0-7.611-2.912 11.408 11.408 0 0 0-9.494 5.074h-13.34v10.15c0 12.61 10.222 22.835 22.834 22.835 4.203 0 7.611-10.225 7.611-22.834z"/>
    </g>
</svg>
