<?xml version="1.0" encoding="utf-8"?>
<!-- Generator: Adobe Illustrator 16.0.0, SVG Export Plug-In . SVG Version: 6.00 Build 0)  -->
<!DOCTYPE svg PUBLIC "-//W3C//DTD SVG 1.1//EN" "http://www.w3.org/Graphics/SVG/1.1/DTD/svg11.dtd">
<svg version="1.1" id="Layer_1" xmlns="http://www.w3.org/2000/svg" xmlns:xlink="http://www.w3.org/1999/xlink" x="0px" y="0px"
	 width="256px" height="256px" viewBox="0 0 256 256" enable-background="new 0 0 256 256" xml:space="preserve">
<g>
	<rect x="13.207" y="183.329" fill="#EDEDED" width="229.587" height="72.672"/>
	<polygon fill="#48707C" points="242.794,110.654 13.207,110.654 0,183.329 256,183.329 	"/>
	<rect x="96.708" y="76.029" fill="#EDEDED" width="62.584" height="114.554"/>
	<path fill="#C6C6C6" d="M128,210.429c-9.268,0-16.781,7.508-16.781,16.777v28.795h33.561v-28.795
		C144.78,217.937,137.269,210.429,128,210.429z"/>
	<g>
		<rect x="187.183" y="199.428" fill="#C6C6C6" width="10.884" height="10.884"/>
		<rect x="206.23" y="199.428" fill="#C6C6C6" width="10.884" height="10.884"/>
		<rect x="206.23" y="218.475" fill="#C6C6C6" width="10.884" height="10.884"/>
		<rect x="187.183" y="218.475" fill="#C6C6C6" width="10.884" height="10.884"/>
	</g>
	<g>
		<rect x="117.626" y="83.225" fill="#C6C6C6" width="7.544" height="7.542"/>
		<rect x="130.83" y="83.225" fill="#C6C6C6" width="7.544" height="7.542"/>
		<rect x="130.83" y="96.427" fill="#C6C6C6" width="7.544" height="7.546"/>
		<rect x="117.626" y="96.427" fill="#C6C6C6" width="7.544" height="7.546"/>
	</g>
	<g>
		<rect x="57.934" y="199.428" fill="#C6C6C6" width="10.884" height="10.884"/>
		<rect x="38.886" y="199.428" fill="#C6C6C6" width="10.885" height="10.884"/>
		<rect x="38.886" y="218.475" fill="#C6C6C6" width="10.885" height="10.884"/>
		<rect x="57.934" y="218.475" fill="#C6C6C6" width="10.884" height="10.884"/>
	</g>
	<polygon fill="#48707C" points="96.708,76.029 159.293,76.029 128,32.057 	"/>
	<path fill="#FF6E69" d="M151.169,11.591c-1.145,1.531-15.186,2.721-23.169,4.082c1.936-5.283,0.787-11.267,2.723-15.672
		c4.232,0.351,12.706,1.939,14.644,3.236C147.303,4.533,152.314,10.065,151.169,11.591z"/>
	<path fill="#EDEDED" d="M130.723,0H128c-1.503,0-2.721,1.217-2.721,2.721v33.162h5.443V0z"/>
	<path fill="#C6C6C6" d="M147.853,146.988c0-10.964-8.888-19.85-19.853-19.85c-10.963,0-19.853,8.886-19.853,19.85
		c0,10.969,8.889,19.856,19.853,19.856C138.965,166.845,147.853,157.957,147.853,146.988z"/>
	<g>
		<path fill="#FFFFFF" d="M123.244,157.07c-0.22,0-0.444-0.052-0.648-0.164c-0.662-0.361-0.904-1.186-0.544-1.846l4.589-8.417
			v-15.412c0-0.749,0.608-1.361,1.359-1.361c0.752,0,1.361,0.612,1.361,1.361v15.762c0,0.224-0.059,0.453-0.165,0.65l-4.756,8.72
			C124.192,156.816,123.728,157.07,123.244,157.07z"/>
	</g>
	<path opacity="0.15" d="M242.794,110.654h-83.501V76.029l-28.57-40.146V15.248c8.093-1.191,19.425-2.286,20.446-3.657
		c1.146-1.526-3.866-7.058-5.803-8.354C143.429,1.939,134.955,0.351,130.723,0H128v256.001h16.78h98.014v-72.672H256
		L242.794,110.654z"/>
</g>
</svg>
